<?xml version="1.0" encoding="utf-8"?>
<!-- Generator: Adobe Illustrator 23.0.3, SVG Export Plug-In . SVG Version: 6.00 Build 0)  -->
<svg version="1.1" id="katman_1" xmlns="http://www.w3.org/2000/svg" xmlns:xlink="http://www.w3.org/1999/xlink" x="0px" y="0px"
	 viewBox="0 0 512 512" style="enable-background:new 0 0 512 512;" xml:space="preserve">
<style type="text/css">
	.st0{fill:#E57E25;}
	.st1{fill:#A56A43;}
	.st2{fill:#95A5A5;}
	.st3{fill:#F29C1F;}
	.st4{fill:#F3D55B;}
</style>
<g>
	<path id="Shape" class="st1" d="M476.6,32.6l-84.91,84.83l24.31,24.4l84.91-84.91c3.24-3.22,5.07-7.59,5.09-12.16
		c-0.03-6.95-4.23-13.2-10.65-15.86S481.53,27.7,476.6,32.6L476.6,32.6z"/>
	<path class="st2" d="M316.34,225.79c-3.5,0.02-6.67-2.08-8.01-5.31s-0.6-6.96,1.89-9.43l87.5-87.5c3.38-3.38,8.86-3.38,12.24,0
		s3.38,8.86,0,12.24l-87.5,87.5C320.84,224.91,318.64,225.8,316.34,225.79L316.34,225.79z"/>
	<path class="st0" d="M256,484.41c-138.07,0-250-111.93-250-250v-8.62c0-9.52,7.72-17.24,17.24-17.24h465.52
		c9.52,0,17.24,7.72,17.24,17.24v8.62C506,372.48,394.07,484.41,256,484.41z"/>
	<path class="st3" d="M472.72,208.55c4.41,0.16,8.58,2.06,11.59,5.3s4.61,7.53,4.44,11.94v8.62c0,137.93-104.22,250-232.76,250
		s-232.76-112.59-232.76-250v-8.62c-0.16-4.41,1.44-8.71,4.44-11.94s7.18-5.14,11.59-5.3H472.72z"/>
	<path class="st2" d="M377.21,225.79H244.79c-3.18,0.02-6.11-1.72-7.62-4.51c-1.51-2.79-1.37-6.19,0.38-8.85
		c15.78-24.14,91.9-83.28,151.38-103.45c3.04-0.95,6.35-0.16,8.62,2.07l24.4,24.4c2.23,2.27,3.02,5.59,2.07,8.62
		c-10.13,27.34-23.47,53.39-39.74,77.59C382.77,224.14,380.11,225.69,377.21,225.79z M264.62,208.55h107.93
		c13.2-20.37,24.4-41.96,33.45-64.48l-16.55-16.55C343.17,146.55,300.84,174.03,264.62,208.55L264.62,208.55z"/>
	<g>
		<path class="st4" d="M143.93,208.55v17.24c0,9.52,7.72,17.24,17.24,17.24h120.69c9.52,0,17.24,7.72,17.24,17.24v103.45
			c0,9.52,7.72,17.24,17.24,17.24c9.52,0,17.24-7.72,17.24-17.24V260.27c0-9.52,7.72-17.24,17.24-17.24
			c9.52,0,17.24,7.72,17.24,17.24V312c0,9.52,7.72,17.24,17.24,17.24c9.52,0,17.24-7.72,17.24-17.24v-51.72
			c0-9.52,7.72-17.24,17.24-17.24c9.52,0,17.24-7.72,17.24-17.24v-17.24H143.93z"/>
		<path class="st4" d="M49.1,303.38c-3.96,0.16-7.51-2.4-8.62-6.21c-5.1-17.62-8-35.81-8.62-54.14c0-3.08,1.64-5.93,4.31-7.47
			c2.67-1.54,5.95-1.54,8.62,0c2.67,1.54,4.31,4.39,4.31,7.47c0.85,16.73,3.75,33.29,8.62,49.31c0.78,2.66,0.23,5.54-1.48,7.73
			S51.88,303.49,49.1,303.38z"/>
		<path class="st4" d="M74.97,359.84c-2.91,0.01-5.64-1.45-7.24-3.88c-4.76-7.38-9.08-15.04-12.93-22.93
			c-1.63-2.79-1.57-6.25,0.16-8.98c1.73-2.73,4.84-4.26,8.06-3.96s6,2.36,7.21,5.36c3.58,7.24,7.58,14.27,11.98,21.03
			c1.75,2.65,1.89,6.05,0.38,8.85C81.07,358.12,78.14,359.86,74.97,359.84z"/>
	</g>
</g>
</svg>
