<?xml version="1.0" encoding="iso-8859-1"?>
<!-- Generator: Adobe Illustrator 19.0.0, SVG Export Plug-In . SVG Version: 6.00 Build 0)  -->
<svg version="1.1" id="Layer_1" xmlns="http://www.w3.org/2000/svg" xmlns:xlink="http://www.w3.org/1999/xlink" x="0px" y="0px"
	 viewBox="0 0 512 512" style="enable-background:new 0 0 512 512;" xml:space="preserve">
<g>
	<path style="fill:#D7DEED;" d="M392.828,0C387.953,0,384,3.948,384,8.828v123.586c0,4.871-3.961,8.828-8.828,8.828
		s-8.828-3.957-8.828-8.828V8.828c0-4.879-3.953-8.828-8.828-8.828s-8.828,3.948-8.828,8.828v123.586
		c0,4.871-3.961,8.828-8.828,8.828s-8.828-3.957-8.828-8.828V8.828c0-4.879-3.953-8.828-8.828-8.828
		c-4.875,0-8.828,3.948-8.828,8.828v123.586c0,4.871-3.961,8.828-8.828,8.828c-4.866,0-8.828-3.957-8.828-8.828V8.828
		c0-4.879-3.953-8.828-8.828-8.828c-4.875,0-8.828,3.948-8.828,8.828v132.414c0,27.933,18.646,51.571,44.138,59.191v64.395h35.31
		v-64.395c25.492-7.619,44.138-31.259,44.138-59.191V8.828C401.655,3.948,397.703,0,392.828,0z"/>
	<path style="fill:#D7DEED;" d="M180.965,0c-39.003,0-70.621,44.505-70.621,123.586c0,26.336,14.436,49.253,35.816,61.374
		c10.785,6.114,17.15,17.843,17.15,30.24v49.628h35.31v-49.629c0-12.397,6.365-24.126,17.15-30.24
		c21.379-12.12,35.816-35.038,35.816-61.374C251.586,44.505,219.969,0,180.965,0z"/>
</g>
<g>
	<rect x="163.311" y="238.345" style="fill:#AFB9D2;" width="35.31" height="26.483"/>
	<rect x="322.208" y="238.345" style="fill:#AFB9D2;" width="35.31" height="26.483"/>
</g>
<path style="fill:#00D2B9;" d="M339.903,512h-0.082c-19.28,0-34.719-15.981-34.055-35.249l7.317-212.229
	c0.164-4.754,4.065-8.523,8.822-8.523h35.908c4.757,0,8.659,3.769,8.822,8.523l7.319,212.228
	C374.622,496.019,359.183,512,339.903,512z"/>
<path style="fill:#00BEA9;" d="M331.056,476.751l7.317-212.229c0.163-4.755,4.065-8.523,8.822-8.523h10.623h-0.002h-35.908
	c-4.757,0-8.659,3.769-8.822,8.523l-7.317,212.229C305.104,496.019,320.543,512,339.821,512h0.082c4.471,0,8.698-0.938,12.604-2.498
	C339.573,504.333,330.546,491.551,331.056,476.751z"/>
<path style="fill:#E15050;" d="M181.006,512h-0.082c-19.279,0-34.719-15.981-34.055-35.249l7.317-212.229
	c0.164-4.754,4.065-8.523,8.822-8.523h35.908c4.757,0,8.659,3.769,8.822,8.523l7.319,212.228
	C215.725,496.019,200.286,512,181.006,512z"/>
<path style="fill:#D24146;" d="M172.159,476.751l7.317-212.229c0.163-4.755,4.065-8.523,8.822-8.523h10.623h-0.002H163.01
	c-4.757,0-8.659,3.769-8.822,8.523l-7.317,212.229C146.207,496.019,161.646,512,180.925,512h0.082c4.471,0,8.699-0.938,12.604-2.498
	C180.676,504.333,171.649,491.551,172.159,476.751z"/>
<g>
</g>
<g>
</g>
<g>
</g>
<g>
</g>
<g>
</g>
<g>
</g>
<g>
</g>
<g>
</g>
<g>
</g>
<g>
</g>
<g>
</g>
<g>
</g>
<g>
</g>
<g>
</g>
<g>
</g>
</svg>
